<svg width="910" height="198" viewBox="0 0 910 198" fill="none" xmlns="http://www.w3.org/2000/svg">
<path d="M242.332 98.2053V133H236.222V99.1671C236.222 95.8102 235.411 92.7551 233.789 90.0017C232.167 87.2483 229.979 85.0606 227.226 83.4388C224.473 81.8169 221.418 81.006 218.061 81.006C214.741 81.006 211.705 81.8169 208.952 83.4388C206.198 85.0606 203.992 87.2483 202.332 90.0017C200.71 92.7551 199.899 95.8102 199.899 99.1671V133H193.789V76.4233H199.899V85.0795C201.936 81.9489 204.633 79.4596 207.99 77.6114C211.347 75.7632 215.005 74.8391 218.966 74.8391C223.303 74.8391 227.226 75.8952 230.734 78.0074C234.279 80.0819 237.089 82.8919 239.164 86.4374C241.276 89.9828 242.332 93.9055 242.332 98.2053ZM277.47 134.471C272.265 134.471 267.512 133.132 263.212 130.454C258.95 127.776 255.537 124.193 252.972 119.704C250.445 115.178 249.181 110.181 249.181 104.712C249.181 100.563 249.917 96.6966 251.388 93.1134C252.859 89.4925 254.877 86.3242 257.442 83.6085C260.044 80.8551 263.062 78.7052 266.494 77.1588C269.926 75.6123 273.585 74.8391 277.47 74.8391C281.581 74.8391 285.372 75.6501 288.842 77.2719C292.349 78.8561 295.367 81.1003 297.894 84.0045C300.421 86.9088 302.363 90.3411 303.721 94.3015C305.079 98.2242 305.702 102.524 305.588 107.201H255.575C255.989 111.237 257.196 114.858 259.195 118.064C261.232 121.232 263.835 123.74 267.003 125.588C270.171 127.399 273.66 128.323 277.47 128.361C281.656 128.361 285.428 127.267 288.785 125.079C292.142 122.854 294.839 119.818 296.876 115.97L303.042 117.385C300.779 122.401 297.366 126.513 292.802 129.719C288.238 132.887 283.127 134.471 277.47 134.471ZM255.405 101.996H299.422C299.195 98.111 298.064 94.5467 296.027 91.3029C294.028 88.0215 291.406 85.4001 288.163 83.4388C284.919 81.4775 281.355 80.4968 277.47 80.4968C273.585 80.4968 270.039 81.4586 266.833 83.3822C263.627 85.3058 261.006 87.9083 258.969 91.1898C256.97 94.4335 255.782 98.0356 255.405 101.996ZM312.857 111.105V76.4233H318.967V110.143C318.967 113.5 319.778 116.555 321.4 119.308C323.059 122.062 325.266 124.249 328.019 125.871C330.773 127.493 333.809 128.304 337.128 128.304C340.485 128.304 343.521 127.493 346.237 125.871C348.99 124.249 351.178 122.062 352.8 119.308C354.459 116.555 355.289 113.5 355.289 110.143V76.4233H361.4V133H355.289V124.231C353.252 127.323 350.556 129.813 347.199 131.699C343.88 133.547 340.221 134.471 336.223 134.471C331.923 134.471 328 133.434 324.455 131.359C320.909 129.247 318.081 126.418 315.968 122.873C313.894 119.327 312.857 115.405 312.857 111.105ZM372.691 133V76.4233H378.801V85.0795C380.838 81.9489 383.535 79.4596 386.892 77.6114C390.249 75.7632 393.907 74.8391 397.868 74.8391C400.093 74.8391 402.224 75.122 404.261 75.6878L401.715 81.6849C400.093 81.2323 398.509 81.006 396.962 81.006C393.643 81.006 390.607 81.8169 387.854 83.4388C385.1 85.0606 382.894 87.2483 381.234 90.0017C379.612 92.7551 378.801 95.8102 378.801 99.1671V133H372.691ZM433.387 134.471C428.182 134.471 423.43 133.132 419.13 130.454C414.868 127.776 411.454 124.193 408.89 119.704C406.362 115.178 405.099 110.181 405.099 104.712C405.099 100.563 405.834 96.6966 407.305 93.1134C408.776 89.4925 410.794 86.3242 413.359 83.6085C415.962 80.8551 418.979 78.7052 422.411 77.1588C425.844 75.6123 429.502 74.8391 433.387 74.8391C438.592 74.8391 443.326 76.1781 447.588 78.8561C451.888 81.534 455.301 85.1361 457.828 89.6622C460.393 94.1884 461.676 99.2048 461.676 104.712C461.676 108.823 460.94 112.67 459.469 116.253C457.998 119.836 455.961 123.005 453.359 125.758C450.794 128.474 447.795 130.605 444.363 132.151C440.969 133.698 437.31 134.471 433.387 134.471ZM433.387 128.361C437.574 128.361 441.327 127.267 444.646 125.079C448.003 122.892 450.662 120.006 452.623 116.423C454.585 112.84 455.565 108.936 455.565 104.712C455.565 100.45 454.585 96.508 452.623 92.8871C450.662 89.2662 448.003 86.3808 444.646 84.2309C441.289 82.0432 437.536 80.9494 433.387 80.9494C429.201 80.9494 425.429 82.0432 422.072 84.2309C418.715 86.4185 416.056 89.3228 414.095 92.9437C412.171 96.5269 411.209 100.45 411.209 104.712C411.209 109.125 412.209 113.123 414.208 116.706C416.244 120.251 418.941 123.08 422.298 125.192C425.655 127.305 429.351 128.361 433.387 128.361ZM489.188 134.075C486.057 134.037 482.983 133.49 479.966 132.434C476.986 131.34 474.384 129.888 472.158 128.078C469.933 126.267 468.386 124.212 467.519 121.911L472.894 119.591C473.535 121.289 474.761 122.816 476.571 124.174C478.419 125.532 480.494 126.607 482.795 127.399C485.133 128.153 487.415 128.53 489.64 128.53C492.167 128.53 494.544 128.097 496.769 127.229C498.994 126.362 500.805 125.136 502.2 123.552C503.596 121.968 504.294 120.101 504.294 117.951C504.294 115.688 503.558 113.915 502.087 112.632C500.616 111.312 498.73 110.256 496.43 109.464C494.167 108.634 491.828 107.861 489.414 107.144C485.265 105.937 481.663 104.712 478.608 103.467C475.591 102.185 473.252 100.563 471.592 98.6013C469.933 96.64 469.103 94.0563 469.103 90.8503C469.103 87.5312 470.065 84.6458 471.988 82.1941C473.912 79.7424 476.439 77.8565 479.57 76.5364C482.7 75.1786 486.057 74.4997 489.64 74.4997C494.28 74.4997 498.485 75.518 502.257 77.5548C506.067 79.5916 508.744 82.2695 510.291 85.5887L505.312 88.5307C504.558 86.7957 503.37 85.3058 501.748 84.0611C500.126 82.8164 498.278 81.8546 496.203 81.1757C494.129 80.4968 492.035 80.1385 489.923 80.1008C487.283 80.063 484.813 80.4779 482.512 81.3454C480.249 82.1752 478.419 83.4011 477.024 85.0229C475.628 86.6071 474.93 88.5307 474.93 90.7938C474.93 93.0568 475.572 94.7918 476.854 95.9988C478.136 97.2058 479.928 98.1865 482.229 98.9408C484.53 99.6574 487.189 100.506 490.206 101.487C493.714 102.581 496.977 103.806 499.994 105.164C503.049 106.484 505.501 108.144 507.349 110.143C509.235 112.142 510.159 114.726 510.121 117.894C510.121 121.213 509.122 124.099 507.123 126.55C505.161 129.002 502.578 130.888 499.372 132.208C496.203 133.528 492.809 134.15 489.188 134.075ZM561.584 119.704L567.015 122.646C564.45 126.23 561.188 129.096 557.228 131.246C553.305 133.396 549.043 134.471 544.441 134.471C539.236 134.471 534.484 133.132 530.184 130.454C525.922 127.776 522.508 124.193 519.943 119.704C517.416 115.178 516.153 110.181 516.153 104.712C516.153 100.563 516.888 96.6966 518.359 93.1134C519.83 89.4925 521.848 86.3242 524.413 83.6085C527.016 80.8551 530.033 78.7052 533.465 77.1588C536.898 75.6123 540.556 74.8391 544.441 74.8391C549.043 74.8391 553.305 75.9141 557.228 78.064C561.188 80.2139 564.45 83.0993 567.015 86.7202L561.584 89.6056C559.434 86.8145 556.831 84.6835 553.776 83.2125C550.721 81.7038 547.609 80.9494 544.441 80.9494C540.292 80.9494 536.539 82.0432 533.182 84.2309C529.826 86.3808 527.166 89.2662 525.205 92.8871C523.244 96.4703 522.263 100.412 522.263 104.712C522.263 109.049 523.263 113.01 525.262 116.593C527.261 120.176 529.939 123.042 533.296 125.192C536.652 127.305 540.368 128.361 544.441 128.361C547.873 128.361 551.098 127.55 554.116 125.928C557.133 124.306 559.623 122.232 561.584 119.704ZM577.229 133V76.4233H583.339V85.0795C585.376 81.9489 588.073 79.4596 591.43 77.6114C594.787 75.7632 598.445 74.8391 602.406 74.8391C604.631 74.8391 606.762 75.122 608.799 75.6878L606.253 81.6849C604.631 81.2323 603.047 81.006 601.501 81.006C598.181 81.006 595.145 81.8169 592.392 83.4388C589.638 85.0606 587.432 87.2483 585.772 90.0017C584.15 92.7551 583.339 95.8102 583.339 99.1671V133H577.229ZM616.236 76.4233H622.346V133H616.236V76.4233ZM619.348 65.7303C618.292 65.7303 617.387 65.3908 616.632 64.7119C615.916 63.9952 615.557 63.1089 615.557 62.0528C615.557 60.9967 615.916 60.1292 616.632 59.4502C617.387 58.7336 618.292 58.3753 619.348 58.3753C620.366 58.3753 621.234 58.7336 621.95 59.4502C622.705 60.1292 623.082 60.9967 623.082 62.0528C623.082 63.1089 622.724 63.9952 622.007 64.7119C621.29 65.3908 620.404 65.7303 619.348 65.7303ZM663.898 74.8391C669.367 74.8391 674.345 76.1781 678.834 78.8561C683.36 81.534 686.962 85.1361 689.64 89.6622C692.318 94.1506 693.657 99.1483 693.657 104.655C693.657 108.766 692.884 112.632 691.337 116.253C689.791 119.836 687.641 123.005 684.888 125.758C682.172 128.474 679.022 130.605 675.439 132.151C671.856 133.698 668.009 134.471 663.898 134.471C658.881 134.471 654.562 133.264 650.942 130.85C647.358 128.436 644.567 125.268 642.568 121.345V133H636.458V48.1349H642.568V87.9649C644.567 84.0423 647.358 80.874 650.942 78.46C654.562 76.0461 658.881 74.8391 663.898 74.8391ZM663.841 128.474C668.216 128.474 672.177 127.399 675.722 125.249C679.305 123.099 682.153 120.233 684.265 116.649C686.415 113.028 687.49 109.03 687.49 104.655C687.49 100.204 686.396 96.1874 684.209 92.6042C682.021 88.9833 679.136 86.1167 675.552 84.0045C672.007 81.8924 668.103 80.8363 663.841 80.8363C659.503 80.8363 655.769 81.9112 652.639 84.0611C649.546 86.211 647.17 89.0965 645.51 92.7174C643.851 96.3383 643.021 100.318 643.021 104.655C643.021 109.106 643.851 113.123 645.51 116.706C647.207 120.289 649.603 123.156 652.695 125.306C655.826 127.418 659.541 128.474 663.841 128.474ZM727.653 134.471C722.447 134.471 717.695 133.132 713.395 130.454C709.133 127.776 705.72 124.193 703.155 119.704C700.628 115.178 699.364 110.181 699.364 104.712C699.364 100.563 700.1 96.6966 701.571 93.1134C703.042 89.4925 705.06 86.3242 707.624 83.6085C710.227 80.8551 713.244 78.7052 716.677 77.1588C720.109 75.6123 723.768 74.8391 727.653 74.8391C731.764 74.8391 735.554 75.6501 739.024 77.2719C742.532 78.8561 745.55 81.1003 748.077 84.0045C750.604 86.9088 752.546 90.3411 753.904 94.3015C755.262 98.2242 755.884 102.524 755.771 107.201H705.757C706.172 111.237 707.379 114.858 709.378 118.064C711.415 121.232 714.018 123.74 717.186 125.588C720.354 127.399 723.843 128.323 727.653 128.361C731.839 128.361 735.611 127.267 738.968 125.079C742.325 122.854 745.022 119.818 747.058 115.97L753.225 117.385C750.962 122.401 747.549 126.513 742.985 129.719C738.421 132.887 733.31 134.471 727.653 134.471ZM705.588 101.996H749.604C749.378 98.111 748.246 94.5467 746.21 91.3029C744.211 88.0215 741.589 85.4001 738.346 83.4388C735.102 81.4775 731.537 80.4968 727.653 80.4968C723.768 80.4968 720.222 81.4586 717.016 83.3822C713.81 85.3058 711.189 87.9083 709.152 91.1898C707.153 94.4335 705.965 98.0356 705.588 101.996ZM766.275 134.471C765.257 134.471 764.389 134.094 763.672 133.339C762.956 132.623 762.597 131.736 762.597 130.68C762.597 129.7 762.956 128.851 763.672 128.134C764.389 127.38 765.257 127.003 766.275 127.003C767.331 127.003 768.217 127.38 768.934 128.134C769.688 128.851 770.066 129.7 770.066 130.68C770.066 131.736 769.688 132.623 768.934 133.339C768.217 134.094 767.331 134.471 766.275 134.471ZM783.646 133V76.4233H789.756V85.0795C791.793 81.9489 794.49 79.4596 797.847 77.6114C801.203 75.7632 804.862 74.8391 808.822 74.8391C811.048 74.8391 813.179 75.122 815.216 75.6878L812.67 81.6849C811.048 81.2323 809.464 81.006 807.917 81.006C804.598 81.006 801.562 81.8169 798.808 83.4388C796.055 85.0606 793.849 87.2483 792.189 90.0017C790.567 92.7551 789.756 95.8102 789.756 99.1671V133H783.646ZM819.727 111.105V76.4233H825.837V110.143C825.837 113.5 826.648 116.555 828.27 119.308C829.929 122.062 832.136 124.249 834.889 125.871C837.643 127.493 840.679 128.304 843.998 128.304C847.355 128.304 850.391 127.493 853.107 125.871C855.86 124.249 858.048 122.062 859.67 119.308C861.33 116.555 862.159 113.5 862.159 110.143V76.4233H868.27V133H862.159V124.231C860.123 127.323 857.426 129.813 854.069 131.699C850.75 133.547 847.091 134.471 843.093 134.471C838.793 134.471 834.87 133.434 831.325 131.359C827.78 129.247 824.951 126.418 822.838 122.873C820.764 119.327 819.727 115.405 819.727 111.105Z" fill="#094067"/>
<g clip-path="url(#clip0_5_447)">
<path d="M134.822 126.246H116.957C116.331 126.246 115.731 125.997 115.288 125.555C114.845 125.112 114.597 124.512 114.597 123.886V66.4672H39.3599C38.9419 66.4655 38.5317 66.3527 38.1715 66.1404C37.8114 65.9281 37.514 65.624 37.31 65.2591C37.1059 64.8942 37.0024 64.4816 37.0102 64.0636C37.0179 63.6456 37.1365 63.2371 37.3539 62.88L48.5875 45.062C48.7991 44.7406 49.086 44.4759 49.4233 44.2908C49.7606 44.1057 50.138 44.0059 50.5227 44H134.822C135.448 44 136.048 44.2486 136.491 44.6912C136.933 45.1338 137.182 45.7341 137.182 46.36V123.957C137.164 124.57 136.907 125.153 136.466 125.58C136.026 126.007 135.436 126.246 134.822 126.246ZM119.246 121.668H132.533V48.5076H51.7971L43.4191 61.8888H116.957C117.583 61.8888 118.183 62.1374 118.626 62.58C119.068 63.0226 119.317 63.6229 119.317 64.2488L119.246 121.668Z" fill="#094067" stroke="#094067" stroke-width="2"/>
<path d="M152.64 144.111H75.0432C74.4173 144.111 73.817 143.862 73.3745 143.42C72.9319 142.977 72.6832 142.377 72.6832 141.751V123.957C72.6832 123.331 72.9319 122.731 73.3745 122.288C73.817 121.845 74.4173 121.597 75.0432 121.597H132.533V46.3599C132.535 45.9419 132.647 45.5317 132.86 45.1715C133.072 44.8114 133.376 44.514 133.741 44.31C134.106 44.1059 134.518 44.0024 134.936 44.0102C135.354 44.0179 135.763 44.1365 136.12 44.3539L154.009 55.5875C154.33 55.7991 154.595 56.086 154.78 56.4233C154.965 56.7606 155.065 57.138 155.071 57.5227V141.822C155.062 142.132 154.992 142.437 154.864 142.72C154.737 143.003 154.556 143.258 154.33 143.47C154.104 143.683 153.839 143.849 153.549 143.959C153.259 144.069 152.95 144.121 152.64 144.111ZM77.3324 139.533H150.492V58.7971L137.111 50.4191V123.957C137.111 124.583 136.863 125.183 136.42 125.626C135.977 126.068 135.377 126.317 134.751 126.317H77.3324V139.533Z" fill="#094067" stroke="#094067" stroke-width="2"/>
<path d="M141.477 162H57.1543C56.5284 162 55.9281 161.752 55.4855 161.309C55.043 160.867 54.7943 160.266 54.7943 159.64V82.0436C54.7943 81.4177 55.043 80.8174 55.4855 80.3748C55.9281 79.9322 56.5284 79.6836 57.1543 79.6836H75.0431C75.669 79.6836 76.2693 79.9322 76.7119 80.3748C77.1545 80.8174 77.4031 81.4177 77.4031 82.0436V139.533H152.64C153.058 139.535 153.468 139.648 153.828 139.86C154.188 140.072 154.486 140.376 154.69 140.741C154.894 141.106 154.997 141.519 154.99 141.937C154.982 142.355 154.863 142.763 154.646 143.12L143.412 161.009C143.193 161.317 142.902 161.568 142.566 161.741C142.229 161.913 141.856 162.002 141.477 162ZM59.4435 157.422H140.203L148.581 144.112H75.0431C74.4172 144.112 73.8169 143.863 73.3743 143.42C72.9318 142.978 72.6831 142.377 72.6831 141.752V84.3328H59.4435V157.422Z" fill="#094067" stroke="#094067" stroke-width="2"/>
<path d="M57.1544 162C56.7045 162.006 56.2624 161.883 55.88 161.646L38.062 150.413C37.7406 150.201 37.4759 149.914 37.2908 149.577C37.1057 149.239 37.0059 148.862 37 148.477V64.1781C37 63.5522 37.2486 62.9519 37.6912 62.5093C38.1338 62.0668 38.7341 61.8181 39.36 61.8181H116.957C117.583 61.8181 118.183 62.0668 118.626 62.5093C119.068 62.9519 119.317 63.5522 119.317 64.1781V82.0433C119.317 82.6692 119.068 83.2695 118.626 83.7121C118.183 84.1547 117.583 84.4033 116.957 84.4033H59.4436V159.64C59.437 160.048 59.3249 160.447 59.1181 160.799C58.9113 161.15 58.6169 161.442 58.2636 161.646C57.932 161.861 57.5491 161.983 57.1544 162ZM41.5784 147.203L54.8888 155.581V82.0433C54.8888 81.4174 55.1374 80.8171 55.58 80.3745C56.0226 79.932 56.6229 79.6833 57.2488 79.6833H114.668V66.4673H41.5076L41.5784 147.203Z" fill="#094067" stroke="#094067" stroke-width="2"/>
</g>
<defs>
<clipPath id="clip0_5_447">
<rect width="118" height="118" fill="white" transform="translate(37 44)"/>
</clipPath>
</defs>
</svg>
